<?xml version="1.0" encoding="UTF-8" standalone="no"?>
<svg
   xmlns:dc="http://purl.org/dc/elements/1.1/"
   xmlns:cc="http://creativecommons.org/ns#"
   xmlns:rdf="http://www.w3.org/1999/02/22-rdf-syntax-ns#"
   xmlns:svg="http://www.w3.org/2000/svg"
   xmlns="http://www.w3.org/2000/svg"
   viewBox="0 0 1398.0579 1236.6666"
   height="1236.6666"
   width="1398.0579"
   xml:space="preserve"
   id="svg833"
   version="1.1"><metadata
     id="metadata839"><rdf:RDF><cc:Work
         rdf:about=""><dc:format>image/svg+xml</dc:format><dc:type
           rdf:resource="http://purl.org/dc/dcmitype/StillImage" /><dc:title></dc:title></cc:Work></rdf:RDF></metadata><defs
     id="defs837"><rect
       id="rect4737"
       height="52.480362"
       width="578.32172"
       y="618.55322"
       x="368.01334" /></defs><g
     transform="matrix(1.3333333,0,0,-1.3333333,-580.97097,1338.3333)"
     id="g841"><g
       transform="matrix(2.0023715,0,0,-2.0023715,372.4337,1037.247)"
       id="g851" /><g
       transform="matrix(2.0023715,0,0,-2.0023715,372.4337,1037.247)"
       id="g1383" /><g
       id="g4845"><path
         id="path1311"
         style="fill:#f5f5f5;fill-opacity:1;fill-rule:nonzero;stroke:none;stroke-width:1.86235"
         d="m 1065.2272,806.31582 h 415.2945 c 0,0 0,0 0,0 v -54.0081 c 0,0 0,0 0,0 h -415.2945 c 0,0 0,0 0,0 v 54.0081 c 0,0 0,0 0,0 z" /><path
         id="path1293"
         style="fill:#306996;fill-opacity:1;fill-rule:nonzero;stroke:none;stroke-width:1.86235"
         d="m 1065.2272,865.91096 h 415.2945 c 0,0 0,0 0,0 v -59.59514 c 0,0 0,0 0,0 h -415.2945 c 0,0 0,0 0,0 v 59.59514 c 0,0 0,0 0,0 z" /><path
         id="path1337"
         style="fill:#f5f5f5;fill-opacity:1;fill-rule:nonzero;stroke:none;stroke-width:1.86235"
         d="m 1065.2272,752.30771 h 415.2945 c 0,0 0,0 0,0 v -54.0081 c 0,0 0,0 0,0 h -415.2945 c 0,0 0,0 0,0 v 54.0081 c 0,0 0,0 0,0 z" /><path
         id="path1363"
         style="fill:#f5f5f5;fill-opacity:1;fill-rule:nonzero;stroke:none;stroke-width:1.86235"
         d="m 1065.2272,698.29961 h 415.2945 c 0,0 0,0 0,0 v -54.0081 c 0,0 0,0 0,0 h -415.2945 c 0,0 0,0 0,0 v 54.0081 c 0,0 0,0 0,0 z" /><path
         id="path1213"
         style="fill:#f5f5f5;fill-opacity:1;fill-rule:nonzero;stroke:none;stroke-width:1.86235"
         d="m 506.52277,242.0243 h 439.81228 c 0,0 0,0 0,0 v -54.0081 c 0,0 0,0 0,0 H 506.52277 c 0,0 0,0 0,0 v 54.0081 c 0,0 0,0 0,0 z" /><path
         id="path1013"
         style="fill:#306996;fill-opacity:1;fill-rule:nonzero;stroke:none;stroke-width:1.86235"
         d="m 506.52277,679.67613 h 439.81228 c 0,0 0,0 0,0 v -59.59514 c 0,0 0,0 0,0 H 506.52277 c 0,0 0,0 0,0 v 59.59514 c 0,0 0,0 0,0 z" /><path
         id="path1031"
         style="fill:#f5f5f5;fill-opacity:1;fill-rule:nonzero;stroke:none;stroke-width:1.86235"
         d="m 506.52277,620.08099 h 439.81228 c 0,0 0,0 0,0 v -54.0081 c 0,0 0,0 0,0 H 506.52277 c 0,0 0,0 0,0 v 54.0081 c 0,0 0,0 0,0 z" /><path
         id="path1057"
         style="fill:#f5f5f5;fill-opacity:1;fill-rule:nonzero;stroke:none;stroke-width:1.86235"
         d="m 506.52277,566.07289 h 439.81228 c 0,0 0,0 0,0 v -54.0081 c 0,0 0,0 0,0 H 506.52277 c 0,0 0,0 0,0 v 54.0081 c 0,0 0,0 0,0 z" /><path
         id="path1083"
         style="fill:#f5f5f5;fill-opacity:1;fill-rule:nonzero;stroke:none;stroke-width:1.86235"
         d="m 506.52277,512.0648 h 439.81228 c 0,0 0,0 0,0 v -54.0081 c 0,0 0,0 0,0 H 506.52277 c 0,0 0,0 0,0 v 54.0081 c 0,0 0,0 0,0 z" /><path
         id="path1109"
         style="fill:#f5f5f5;fill-opacity:1;fill-rule:nonzero;stroke:none;stroke-width:1.86235"
         d="m 506.52277,458.0567 h 439.81228 c 0,0 0,0 0,0 v -54.0081 c 0,0 0,0 0,0 H 506.52277 c 0,0 0,0 0,0 v 54.0081 c 0,0 0,0 0,0 z" /><path
         id="path1135"
         style="fill:#f5f5f5;fill-opacity:1;fill-rule:nonzero;stroke:none;stroke-width:1.86235"
         d="m 506.52277,404.04859 h 439.81228 c 0,0 0,0 0,0 v -54.0081 c 0,0 0,0 0,0 H 506.52277 c 0,0 0,0 0,0 v 54.0081 c 0,0 0,0 0,0 z" /><path
         id="path1161"
         style="fill:#f5f5f5;fill-opacity:1;fill-rule:nonzero;stroke:none;stroke-width:1.86235"
         d="m 506.52277,350.04049 h 439.81228 c 0,0 0,0 0,0 v -54.0081 c 0,0 0,0 0,0 H 506.52277 c 0,0 0,0 0,0 v 54.0081 c 0,0 0,0 0,0 z" /><path
         id="path1187"
         style="fill:#f5f5f5;fill-opacity:1;fill-rule:nonzero;stroke:none;stroke-width:1.86235"
         d="m 506.52277,296.03241 h 439.81228 c 0,0 0,0 0,0 v -54.0081 c 0,0 0,0 0,0 H 506.52277 c 0,0 0,0 0,0 v 54.0081 c 0,0 0,0 0,0 z" /><path
         id="path1239"
         style="fill:#f5f5f5;fill-opacity:1;fill-rule:nonzero;stroke:none;stroke-width:1.86235"
         d="m 506.52277,188.0162 h 439.81228 c 0,0 0,0 0,0 v -54.0081 c 0,0 0,0 0,0 H 506.52277 c 0,0 0,0 0,0 v 54.0081 c 0,0 0,0 0,0 z" /><path
         id="path1265"
         style="fill:#f5f5f5;fill-opacity:1;fill-rule:nonzero;stroke:none;stroke-width:1.86235"
         d="m 506.52277,134.00809 h 439.81228 c 0,0 0,0 0,0 V 79.999992 c 0,0 0,0 0,0 H 506.52277 c 0,0 0,0 0,0 v 54.008098 c 0,0 0,0 0,0 z" /><path
         id="path889"
         style="fill:#306996;fill-opacity:1;fill-rule:nonzero;stroke:none;stroke-width:1.86235"
         d="m 439.47824,1000 h 414.78178 c 0,0 0,0 0,0 v -59.59514 c 0,0 0,0 0,0 H 439.47824 c 0,0 0,0 0,0 V 1000 c 0,0 0,0 0,0 z" /><path
         id="path907"
         style="fill:#f5f5f5;fill-opacity:1;fill-rule:nonzero;stroke:none;stroke-width:1.86235"
         d="m 439.47824,940.40489 h 414.78178 c 0,0 0,0 0,0 v -54.0081 c 0,0 0,0 0,0 H 439.47824 c 0,0 0,0 0,0 v 54.0081 c 0,0 0,0 0,0 z" /><path
         id="path933"
         style="fill:#f5f5f5;fill-opacity:1;fill-rule:nonzero;stroke:none;stroke-width:1.86235"
         d="m 439.47824,886.39679 h 414.78178 c 0,0 0,0 0,0 v -54.0081 c 0,0 0,0 0,0 H 439.47824 c 0,0 0,0 0,0 v 54.0081 c 0,0 0,0 0,0 z" /><path
         id="path959"
         style="fill:#f5f5f5;fill-opacity:1;fill-rule:nonzero;stroke:none;stroke-width:1.86235"
         d="m 439.47824,832.3887 h 414.78178 c 0,0 0,0 0,0 v -54.0081 c 0,0 0,0 0,0 H 439.47824 c 0,0 0,0 0,0 v 54.0081 c 0,0 0,0 0,0 z" /><path
         id="path985"
         style="fill:#f5f5f5;fill-opacity:1;fill-rule:nonzero;stroke:none;stroke-width:1.86235"
         d="m 439.47824,778.38059 h 414.78178 c 0,0 0,0 0,0 v -54.0081 c 0,0 0,0 0,0 H 439.47824 c 0,0 0,0 0,0 v 54.0081 c 0,0 0,0 0,0 z" /><path
         d="m 854.26001,913.40081 h 84.32754 c 8.22838,0 14.89879,-6.67041 14.89879,-14.89879 v -104.2915 c 0,-8.22837 6.67041,-14.89878 14.89878,-14.89878 h 96.84208"
         style="fill:none;stroke:#d4d4d4;stroke-width:3.75;stroke-linecap:butt;stroke-linejoin:miter;stroke-miterlimit:4;stroke-dasharray:none;stroke-opacity:1"
         id="path865" /><path
         d="m 946.33505,593.07692 h 44.39825 c 8.22838,0 14.8988,6.67041 14.8988,14.89878 v 48.42106 c 0,8.22837 6.6704,14.89878 14.8988,14.89878 h 44.6963"
         style="fill:none;stroke:#d4d4d4;stroke-width:3.75;stroke-linecap:butt;stroke-linejoin:miter;stroke-miterlimit:4;stroke-dasharray:none;stroke-opacity:1"
         id="path877" /><text
         id="text897"
         style="font-variant:normal;font-weight:bold;font-size:24.2105px;font-family:Helvetica;-inkscape-font-specification:Helvetica-Bold;writing-mode:lr-tb;fill:#ffffff;fill-opacity:1;fill-rule:nonzero;stroke:none;stroke-width:2.00237"
         transform="scale(1,-1)"
         x="463.68875"
         y="-961.72876"><tspan
           id="tspan895"
           y="-961.72876"
           x="463.68875 478.48138 491.94244 506.73508 521.52771 528.25824"
           style="stroke-width:2.00237">people</tspan></text><text
         id="text923"
         style="font-style:normal;font-variant:normal;font-weight:bold;font-stretch:normal;font-size:22.3483px;font-family:Helvetica;-inkscape-font-specification:'Helvetica Bold';writing-mode:lr-tb;fill:#999999;fill-opacity:1;fill-rule:nonzero;stroke:none;stroke-width:2.00237"
         transform="scale(1,-1)"
         x="732.57812"
         y="-905.57898"><tspan
           id="tspan921"
           y="-905.57898"
           x="732.57812 738.79089 754.92627 768.58105 783.48724 800.87415 815.7804"
           style="font-style:normal;font-variant:normal;font-weight:bold;font-stretch:normal;font-family:Helvetica;-inkscape-font-specification:'Helvetica Bold';stroke-width:2.00237">INTEGER</tspan></text><text
         id="text941"
         style="font-variant:normal;font-weight:normal;font-size:22.3483px;font-family:Helvetica;-inkscape-font-specification:Helvetica;writing-mode:lr-tb;fill:#6f6f6f;fill-opacity:1;fill-rule:nonzero;stroke:none;stroke-width:2.00237"
         transform="scale(1,-1)"
         x="463.68875"
         y="-851.57086"><tspan
           id="tspan939"
           y="-851.57086"
           x="463.68875 476.11435 488.53995 500.96552 513.39111 525.81671"
           style="stroke-width:2.00237">gender</tspan></text><text
         id="text949"
         style="font-variant:normal;font-weight:normal;font-size:22.3483px;font-family:Helvetica;-inkscape-font-specification:Helvetica;writing-mode:lr-tb;fill:#999999;fill-opacity:1;fill-rule:nonzero;stroke:none;stroke-width:2.00237"
         transform="scale(1,-1)"
         x="774.79742"
         y="-851.57086"><tspan
           id="tspan947"
           y="-851.57086"
           x="774.79742 788.45215 803.3584 818.26459"
           style="stroke-width:2.00237">TEXT</tspan></text><text
         id="text967"
         style="font-variant:normal;font-weight:normal;font-size:22.3483px;font-family:Helvetica;-inkscape-font-specification:Helvetica;writing-mode:lr-tb;fill:#6f6f6f;fill-opacity:1;fill-rule:nonzero;stroke:none;stroke-width:2.00237"
         transform="scale(1,-1)"
         x="463.68875"
         y="-797.56274"><tspan
           id="tspan965"
           y="-797.56274"
           x="463.68875 469.90155 474.86285 482.30478 493.47888 499.69168 512.11725 524.54285 536.96844 555.58447"
           style="stroke-width:2.00237">first_name</tspan></text><text
         id="text975"
         style="font-variant:normal;font-weight:normal;font-size:22.3483px;font-family:Helvetica;-inkscape-font-specification:Helvetica;writing-mode:lr-tb;fill:#999999;fill-opacity:1;fill-rule:nonzero;stroke:none;stroke-width:2.00237"
         transform="scale(1,-1)"
         x="774.79742"
         y="-797.56274"><tspan
           id="tspan973"
           y="-797.56274"
           x="774.79742 788.45215 803.3584 818.26459"
           style="stroke-width:2.00237">TEXT</tspan></text><text
         id="text993"
         style="font-variant:normal;font-weight:normal;font-size:22.3483px;font-family:Helvetica;-inkscape-font-specification:Helvetica;writing-mode:lr-tb;fill:#6f6f6f;fill-opacity:1;fill-rule:nonzero;stroke:none;stroke-width:2.00237"
         transform="scale(1,-1)"
         x="463.68875"
         y="-743.55469"><tspan
           id="tspan991"
           y="-743.55469"
           x="463.68875 468.65005 481.07565 492.24973 498.46252 510.88812 523.31372 535.73926 554.35535"
           style="stroke-width:2.00237">last_name</tspan></text><text
         id="text1001"
         style="font-variant:normal;font-weight:normal;font-size:22.3483px;font-family:Helvetica;-inkscape-font-specification:Helvetica;writing-mode:lr-tb;fill:#999999;fill-opacity:1;fill-rule:nonzero;stroke:none;stroke-width:2.00237"
         transform="scale(1,-1)"
         x="774.79742"
         y="-743.55469"><tspan
           id="tspan999"
           y="-743.55469"
           x="774.79742 788.45215 803.3584 818.26459"
           style="stroke-width:2.00237">TEXT</tspan></text><text
         id="text1021"
         style="font-variant:normal;font-weight:bold;font-size:24.2105px;font-family:Helvetica;-inkscape-font-specification:Helvetica-Bold;writing-mode:lr-tb;fill:#ffffff;fill-opacity:1;fill-rule:nonzero;stroke:none;stroke-width:2.00237"
         transform="scale(1,-1)"
         x="530.73328"
         y="-641.40491"><tspan
           id="tspan1019"
           y="-641.40491"
           x="530.73328 545.52594 554.94385 568.40491 583.19751 591.25964"
           style="stroke-width:2.00237">grants</tspan></text><text
         id="text1039"
         style="font-style:normal;font-variant:normal;font-weight:bold;font-stretch:normal;font-size:22.3483px;font-family:Helvetica;-inkscape-font-specification:'Helvetica Bold';writing-mode:lr-tb;fill:#000000;fill-opacity:1;fill-rule:nonzero;stroke:none;stroke-width:2.00237"
         transform="scale(1,-1)"
         x="530.73328"
         y="-585.25507"><tspan
           id="tspan1037"
           y="-585.25507"
           x="530.73328 543.15887 550.60083 563.02643 567.98773 580.41333 591.5874 597.80017 610.22577 622.65137 635.07697 653.69299 666.11859 678.54419"
           style="font-style:normal;font-variant:normal;font-weight:bold;font-stretch:normal;font-family:Helvetica;-inkscape-font-specification:'Helvetica Bold';stroke-width:2.00237">project_number</tspan></text><text
         id="text1047"
         style="font-style:normal;font-variant:normal;font-weight:bold;font-stretch:normal;font-size:22.3483px;font-family:Helvetica;-inkscape-font-specification:'Helvetica Bold';writing-mode:lr-tb;fill:#999999;fill-opacity:1;fill-rule:nonzero;stroke:none;stroke-width:2.00237"
         transform="scale(1,-1)"
         x="824.65314"
         y="-585.25507"><tspan
           id="tspan1045"
           y="-585.25507"
           x="824.65314 830.86597 847.00134 860.65607 875.56232 892.94922 907.85541"
           style="font-style:normal;font-variant:normal;font-weight:bold;font-stretch:normal;font-family:Helvetica;-inkscape-font-specification:'Helvetica Bold';stroke-width:2.00237">INTEGER</tspan></text><text
         id="text1065"
         style="font-variant:normal;font-weight:normal;font-size:22.3483px;font-family:Helvetica;-inkscape-font-specification:Helvetica;writing-mode:lr-tb;fill:#6f6f6f;fill-opacity:1;fill-rule:nonzero;stroke:none;stroke-width:2.00237"
         transform="scale(1,-1)"
         x="530.73328"
         y="-531.24701"><tspan
           id="tspan1063"
           y="-531.24701"
           x="530.73328 543.15887 550.60083 563.02643 575.45203 582.89392 595.31952 613.93555 632.55157"
           style="stroke-width:2.00237">programme</tspan></text><text
         id="text1073"
         style="font-variant:normal;font-weight:normal;font-size:22.3483px;font-family:Helvetica;-inkscape-font-specification:Helvetica;writing-mode:lr-tb;fill:#999999;fill-opacity:1;fill-rule:nonzero;stroke:none;stroke-width:2.00237"
         transform="scale(1,-1)"
         x="866.87244"
         y="-531.24701"><tspan
           id="tspan1071"
           y="-531.24701"
           x="866.87244 880.52716 895.43341 910.33966"
           style="stroke-width:2.00237">TEXT</tspan></text><text
         id="text1091"
         style="font-variant:normal;font-weight:normal;font-size:22.3483px;font-family:Helvetica;-inkscape-font-specification:Helvetica;writing-mode:lr-tb;fill:#6f6f6f;fill-opacity:1;fill-rule:nonzero;stroke:none;stroke-width:2.00237"
         transform="scale(1,-1)"
         x="530.73328"
         y="-477.23889"><tspan
           id="tspan1089"
           y="-477.23889"
           x="530.73328 536.94611 549.3717 561.79724 574.22284 579.18414 591.60974 604.03534 616.46094 621.42224 633.84778 645.02191 651.23468 658.67664 671.10223 689.71826 702.1438 714.5694"
           style="stroke-width:2.00237">funding_instrument</tspan></text><text
         id="text1099"
         style="font-variant:normal;font-weight:normal;font-size:22.3483px;font-family:Helvetica;-inkscape-font-specification:Helvetica;writing-mode:lr-tb;fill:#999999;fill-opacity:1;fill-rule:nonzero;stroke:none;stroke-width:2.00237"
         transform="scale(1,-1)"
         x="866.87244"
         y="-477.23889"><tspan
           id="tspan1097"
           y="-477.23889"
           x="866.87244 880.52716 895.43341 910.33966"
           style="stroke-width:2.00237">TEXT</tspan></text><text
         id="text1117"
         style="font-variant:normal;font-weight:normal;font-size:22.3483px;font-family:Helvetica;-inkscape-font-specification:Helvetica;writing-mode:lr-tb;fill:#6f6f6f;fill-opacity:1;fill-rule:nonzero;stroke:none;stroke-width:2.00237"
         transform="scale(1,-1)"
         x="530.73328"
         y="-423.23077"><tspan
           id="tspan1115"
           y="-423.23077"
           x="530.73328 543.15887 555.58447 574.2005 586.6261 591.5874"
           style="stroke-width:2.00237">domain</tspan></text><text
         id="text1125"
         style="font-variant:normal;font-weight:normal;font-size:22.3483px;font-family:Helvetica;-inkscape-font-specification:Helvetica;writing-mode:lr-tb;fill:#999999;fill-opacity:1;fill-rule:nonzero;stroke:none;stroke-width:2.00237"
         transform="scale(1,-1)"
         x="866.87244"
         y="-423.23077"><tspan
           id="tspan1123"
           y="-423.23077"
           x="866.87244 880.52716 895.43341 910.33966"
           style="stroke-width:2.00237">TEXT</tspan></text><text
         id="text1143"
         style="font-variant:normal;font-weight:normal;font-size:22.3483px;font-family:Helvetica;-inkscape-font-specification:Helvetica;writing-mode:lr-tb;fill:#6f6f6f;fill-opacity:1;fill-rule:nonzero;stroke:none;stroke-width:2.00237"
         transform="scale(1,-1)"
         x="530.73328"
         y="-369.22269"><tspan
           id="tspan1141"
           y="-369.22269"
           x="530.73328 536.94611 549.3717 561.79724 566.75854"
           style="stroke-width:2.00237">topic</tspan></text><text
         id="text1151"
         style="font-variant:normal;font-weight:normal;font-size:22.3483px;font-family:Helvetica;-inkscape-font-specification:Helvetica;writing-mode:lr-tb;fill:#999999;fill-opacity:1;fill-rule:nonzero;stroke:none;stroke-width:2.00237"
         transform="scale(1,-1)"
         x="866.87244"
         y="-369.22269"><tspan
           id="tspan1149"
           y="-369.22269"
           x="866.87244 880.52716 895.43341 910.33966"
           style="stroke-width:2.00237">TEXT</tspan></text><text
         id="text1169"
         style="font-variant:normal;font-weight:normal;font-size:22.3483px;font-family:Helvetica;-inkscape-font-specification:Helvetica;writing-mode:lr-tb;fill:#6f6f6f;fill-opacity:1;fill-rule:nonzero;stroke:none;stroke-width:2.00237"
         transform="scale(1,-1)"
         x="530.73328"
         y="-315.21457"><tspan
           id="tspan1167"
           y="-315.21457"
           x="530.73328 543.15887 548.12018 559.29425 570.46838 575.42969 587.85522 592.81653 597.77783 610.20343 622.62903 635.05463 647.48016 659.90576 678.52179"
           style="stroke-width:2.00237">discipline_name</tspan></text><text
         id="text1177"
         style="font-variant:normal;font-weight:normal;font-size:22.3483px;font-family:Helvetica;-inkscape-font-specification:Helvetica;writing-mode:lr-tb;fill:#999999;fill-opacity:1;fill-rule:nonzero;stroke:none;stroke-width:2.00237"
         transform="scale(1,-1)"
         x="866.87244"
         y="-315.21457"><tspan
           id="tspan1175"
           y="-315.21457"
           x="866.87244 880.52716 895.43341 910.33966"
           style="stroke-width:2.00237">TEXT</tspan></text><text
         id="text1195"
         style="font-variant:normal;font-weight:normal;font-size:22.3483px;font-family:Helvetica;-inkscape-font-specification:Helvetica;writing-mode:lr-tb;fill:#6f6f6f;fill-opacity:1;fill-rule:nonzero;stroke:none;stroke-width:2.00237"
         transform="scale(1,-1)"
         x="530.73328"
         y="-261.20648"><tspan
           id="tspan1193"
           y="-261.20648"
           x="530.73328 543.15887 548.12018 559.29425 570.46838 575.42969 587.85522 592.81653 597.77783 610.20343 622.62903 635.05463 647.48016 659.90576 678.52179 690.94739 703.37299"
           style="stroke-width:2.00237">discipline_number</tspan></text><text
         id="text1203"
         style="font-variant:normal;font-weight:normal;font-size:22.3483px;font-family:Helvetica;-inkscape-font-specification:Helvetica;writing-mode:lr-tb;fill:#999999;fill-opacity:1;fill-rule:nonzero;stroke:none;stroke-width:2.00237"
         transform="scale(1,-1)"
         x="824.65314"
         y="-261.20648"><tspan
           id="tspan1201"
           y="-261.20648"
           x="824.65314 830.86597 847.00134 860.65607 875.56232 892.94922 907.85541"
           style="stroke-width:2.00237">INTEGER</tspan></text><text
         id="text1221"
         style="font-variant:normal;font-weight:normal;font-size:22.3483px;font-family:Helvetica;-inkscape-font-specification:Helvetica;writing-mode:lr-tb;fill:#6f6f6f;fill-opacity:1;fill-rule:nonzero;stroke:none;stroke-width:2.00237"
         transform="scale(1,-1)"
         x="530.73328"
         y="-207.19838"><tspan
           id="tspan1219"
           y="-207.19838"
           x="530.73328 541.90741 548.12018 560.54578 567.98773 574.2005 586.6261 599.0517 611.47729 617.69006"
           style="stroke-width:2.00237">start_date</tspan></text><text
         id="text1229"
         style="font-variant:normal;font-weight:normal;font-size:22.3483px;font-family:Helvetica;-inkscape-font-specification:Helvetica;writing-mode:lr-tb;fill:#999999;fill-opacity:1;fill-rule:nonzero;stroke:none;stroke-width:2.00237"
         transform="scale(1,-1)"
         x="812.64978"
         y="-207.19838"><tspan
           id="tspan1227"
           y="-207.19838"
           x="812.64978 828.78516 843.69135 857.34613 872.25232 885.9071 892.11987 910.7359"
           style="stroke-width:2.00237">DATETIME</tspan></text><text
         id="text1247"
         style="font-variant:normal;font-weight:normal;font-size:22.3483px;font-family:Helvetica;-inkscape-font-specification:Helvetica;writing-mode:lr-tb;fill:#6f6f6f;fill-opacity:1;fill-rule:nonzero;stroke:none;stroke-width:2.00237"
         transform="scale(1,-1)"
         x="530.73328"
         y="-153.19029"><tspan
           id="tspan1245"
           y="-153.19029"
           x="530.73328 543.15887 555.58447 568.01007 580.43567 592.86127 605.2868 611.49963"
           style="stroke-width:2.00237">end_date</tspan></text><text
         id="text1255"
         style="font-variant:normal;font-weight:normal;font-size:22.3483px;font-family:Helvetica;-inkscape-font-specification:Helvetica;writing-mode:lr-tb;fill:#999999;fill-opacity:1;fill-rule:nonzero;stroke:none;stroke-width:2.00237"
         transform="scale(1,-1)"
         x="812.64978"
         y="-153.19029"><tspan
           id="tspan1253"
           y="-153.19029"
           x="812.64978 828.78516 843.69135 857.34613 872.25232 885.9071 892.11987 910.7359"
           style="stroke-width:2.00237">DATETIME</tspan></text><text
         id="text1273"
         style="font-variant:normal;font-weight:normal;font-size:22.3483px;font-family:Helvetica;-inkscape-font-specification:Helvetica;writing-mode:lr-tb;fill:#6f6f6f;fill-opacity:1;fill-rule:nonzero;stroke:none;stroke-width:2.00237"
         transform="scale(1,-1)"
         x="530.73328"
         y="-99.18219"><tspan
           id="tspan1271"
           y="-99.18219"
           x="530.73328 543.15887 555.58447 568.01007 575.45203 587.87756 599.0517 611.47729 623.90283 636.32843 648.75403 667.37006 679.79565 692.22125 704.64685"
           style="stroke-width:2.00237">approved_amount</tspan></text><text
         id="text1281"
         style="font-variant:normal;font-weight:normal;font-size:22.3483px;font-family:Helvetica;-inkscape-font-specification:Helvetica;writing-mode:lr-tb;fill:#999999;fill-opacity:1;fill-rule:nonzero;stroke:none;stroke-width:2.00237"
         transform="scale(1,-1)"
         x="853.61414"
         y="-99.18219"><tspan
           id="tspan1279"
           y="-99.18219"
           x="853.61414 867.26886 879.69446 897.08136 911.98755"
           style="stroke-width:2.00237">FLOAT</tspan></text><text
         id="text1319"
         style="font-variant:normal;font-weight:normal;font-size:22.3483px;font-family:Helvetica;-inkscape-font-specification:Helvetica;writing-mode:lr-tb;fill:#6f6f6f;fill-opacity:1;fill-rule:nonzero;stroke:none;stroke-width:2.00237"
         transform="scale(1,-1)"
         x="1089.4377"
         y="-771.48993"><tspan
           id="tspan1317"
           y="-771.48993"
           x="1089.4377 1101.8634 1114.2889 1121.731 1132.905 1145.3306 1157.7562 1170.1818 1175.1431 1187.5686 1199.9943 1211.1683 1223.5939 1234.7679"
           style="stroke-width:2.00237">person_id_snsf</tspan></text><text
         id="text1327"
         style="font-variant:normal;font-weight:normal;font-size:22.3483px;font-family:Helvetica;-inkscape-font-specification:Helvetica;writing-mode:lr-tb;fill:#999999;fill-opacity:1;fill-rule:nonzero;stroke:none;stroke-width:2.00237"
         transform="scale(1,-1)"
         x="1358.8398"
         y="-771.48993"><tspan
           id="tspan1325"
           y="-771.48993"
           x="1358.8398 1365.0526 1381.188 1394.8428 1409.7489 1427.1359 1442.0421"
           style="stroke-width:2.00237">INTEGER</tspan></text><text
         id="text1301"
         style="font-variant:normal;font-weight:bold;font-size:24.2105px;font-family:Helvetica;-inkscape-font-specification:Helvetica-Bold;writing-mode:lr-tb;fill:#ffffff;fill-opacity:1;fill-rule:nonzero;stroke:none;stroke-width:2.00237"
         transform="scale(1,-1)"
         x="1089.4377"
         y="-827.63971"><tspan
           id="tspan1299"
           y="-827.63971"
           x="1089.4377 1098.8557 1113.6483 1120.3789 1133.84 1147.3009 1154.0315 1168.8241 1182.2852 1197.0778 1206.4957 1219.9568 1234.7494 1242.8115"
           style="stroke-width:2.00237">role_in_grants</tspan></text><text
         id="text1345"
         style="font-variant:normal;font-weight:normal;font-size:22.3483px;font-family:Helvetica;-inkscape-font-specification:Helvetica;writing-mode:lr-tb;fill:#6f6f6f;fill-opacity:1;fill-rule:nonzero;stroke:none;stroke-width:2.00237"
         transform="scale(1,-1)"
         x="1089.4377"
         y="-717.48181"><tspan
           id="tspan1343"
           y="-717.48181"
           x="1089.4377 1096.8798 1109.3053 1114.2666"
           style="stroke-width:2.00237">role</tspan></text><text
         id="text1353"
         style="font-variant:normal;font-weight:normal;font-size:22.3483px;font-family:Helvetica;-inkscape-font-specification:Helvetica;writing-mode:lr-tb;fill:#999999;fill-opacity:1;fill-rule:nonzero;stroke:none;stroke-width:2.00237"
         transform="scale(1,-1)"
         x="1401.0591"
         y="-717.48181"><tspan
           id="tspan1351"
           y="-717.48181"
           x="1401.0591 1414.7139 1429.6201 1444.5264"
           style="stroke-width:2.00237">TEXT</tspan></text><text
         id="text1371"
         style="font-variant:normal;font-weight:normal;font-size:22.3483px;font-family:Helvetica;-inkscape-font-specification:Helvetica;writing-mode:lr-tb;fill:#6f6f6f;fill-opacity:1;fill-rule:nonzero;stroke:none;stroke-width:2.00237"
         transform="scale(1,-1)"
         x="1089.4377"
         y="-663.47369"><tspan
           id="tspan1369"
           y="-663.47369"
           x="1089.4377 1101.8634 1109.3053 1121.731 1126.6923 1139.1178 1150.2919 1156.5046 1168.9303 1181.3558 1193.7815 1212.3975 1224.8231 1237.2487"
           style="stroke-width:2.00237">project_number</tspan></text><text
         id="text1379"
         style="font-variant:normal;font-weight:normal;font-size:22.3483px;font-family:Helvetica;-inkscape-font-specification:Helvetica;writing-mode:lr-tb;fill:#999999;fill-opacity:1;fill-rule:nonzero;stroke:none;stroke-width:2.00237"
         transform="scale(1,-1)"
         x="1358.8398"
         y="-663.47369"><tspan
           id="tspan1377"
           y="-663.47369"
           x="1358.8398 1365.0526 1381.188 1394.8428 1409.7489 1427.1359 1442.0421"
           style="stroke-width:2.00237">INTEGER</tspan></text><text
         id="text915"
         style="font-style:normal;font-variant:normal;font-weight:bold;font-stretch:normal;font-size:22.3483px;font-family:Helvetica;-inkscape-font-specification:'Helvetica Bold';writing-mode:lr-tb;fill:#000000;fill-opacity:1;fill-rule:nonzero;stroke:none;stroke-width:2.00237"
         transform="scale(1,-1)"
         x="463.68875"
         y="-905.57898"><tspan
           id="tspan913"
           y="-905.57898"
           x="463.68875 476.11435 488.53995 495.98187 507.15598 519.58154 532.00714 544.43274 549.39404 561.81964 574.24518 585.41931 597.84491 609.01898"
           style="font-style:normal;font-variant:normal;font-weight:bold;font-stretch:normal;font-family:Helvetica;-inkscape-font-specification:'Helvetica Bold';stroke-width:2.00237">person_id_snsf</tspan></text><text
         y="-926.47546"
         x="864.03607"
         style="font-variant:normal;font-weight:normal;font-size:22.3483px;font-family:Helvetica;-inkscape-font-specification:Helvetica;writing-mode:lr-tb;fill:#000000;fill-opacity:1;fill-rule:nonzero;stroke:none;stroke-width:2.00237"
         id="text915-9"
         transform="scale(1,-1)"><tspan
           style="stroke-width:2.00237"
           x="864.03607"
           y="-926.47546"
           id="tspan913-9">1</tspan></text><text
         id="text915-9-6"
         style="font-variant:normal;font-weight:normal;font-size:22.3483px;font-family:Helvetica;-inkscape-font-specification:Helvetica;writing-mode:lr-tb;fill:#000000;fill-opacity:1;fill-rule:nonzero;stroke:none;stroke-width:2.00237"
         x="955.26147"
         y="-565.2533"
         transform="scale(1,-1)"><tspan
           id="tspan913-9-9"
           y="-565.2533"
           x="955.26147"
           style="stroke-width:2.00237">1</tspan></text><text
         id="text915-9-4"
         style="font-variant:normal;font-weight:normal;font-size:22.3483px;font-family:Helvetica;-inkscape-font-specification:Helvetica;writing-mode:lr-tb;fill:#000000;fill-opacity:1;fill-rule:nonzero;stroke:none;stroke-width:2.00237"
         x="1044.5704"
         y="-750.9668"
         transform="scale(1,-1)"><tspan
           id="tspan913-9-1"
           y="-750.9668"
           x="1044.5704"
           style="stroke-width:2.00237">*</tspan></text><text
         id="text915-9-3"
         style="font-variant:normal;font-weight:normal;font-size:22.3483px;font-family:Helvetica;-inkscape-font-specification:Helvetica;writing-mode:lr-tb;fill:#000000;fill-opacity:1;fill-rule:nonzero;stroke:none;stroke-width:2.00237"
         x="1044.5704"
         y="-673.86005"
         transform="scale(1,-1)"><tspan
           id="tspan913-9-7"
           y="-673.86005"
           x="1044.5704"
           style="stroke-width:2.00237">*</tspan></text></g><text
       style="font-style:normal;font-weight:normal;font-size:30px;line-height:1.25;font-family:sans-serif;white-space:pre;shape-inside:url(#rect4737);fill:#000000;fill-opacity:1;stroke:none;"
       id="text4735"
       xml:space="preserve" /></g></svg>
