<?xml version="1.0" encoding="UTF-8" standalone="no"?>
<svg
   xmlns:dc="http://purl.org/dc/elements/1.1/"
   xmlns:cc="http://creativecommons.org/ns#"
   xmlns:rdf="http://www.w3.org/1999/02/22-rdf-syntax-ns#"
   xmlns:svg="http://www.w3.org/2000/svg"
   xmlns="http://www.w3.org/2000/svg"
   version="1.1"
   id="svg833"
   xml:space="preserve"
   width="2038.2034"
   height="1236.6666"
   viewBox="0 0 2038.2034 1236.6666"><metadata
     id="metadata839"><rdf:RDF><cc:Work
         rdf:about=""><dc:format>image/svg+xml</dc:format><dc:type
           rdf:resource="http://purl.org/dc/dcmitype/StillImage" /><dc:title></dc:title></cc:Work></rdf:RDF></metadata><defs
     id="defs837" /><g
     id="g841"
     transform="matrix(1.3333333,0,0,-1.3333333,-263.39826,1338.3333)"><path
       d="m 870.55297,837.20784 h 95.42106 c 13.19746,0 23.8961,-10.69865 23.8961,-23.89611 v -14.93506 c 0,-13.19746 10.69867,-23.89611 23.89607,-23.89611 h 95.5845"
       style="fill:none;fill-opacity:1;stroke:#d4d4d4;stroke-width:7.5;stroke-linecap:butt;stroke-linejoin:miter;stroke-miterlimit:4;stroke-dasharray:none;stroke-opacity:1"
       id="path877" /><path
       d="m 1109.3507,1000 h 563.4195 c 0,0 0,0 0,0 v -95.58442 c 0,0 0,0 0,0 h -563.4195 c 0,0 0,0 0,0 V 1000 c 0,0 0,0 0,0 z"
       style="fill:#ffffff;fill-opacity:1;fill-rule:nonzero;stroke:#ffffff;stroke-width:2.98701"
       id="path889" /><path
       d="m 1109.3507,904.41562 h 563.4195 c 0,0 0,0 0,0 v -86.62338 c 0,0 0,0 0,0 h -563.4195 c 0,0 0,0 0,0 v 86.62338 c 0,0 0,0 0,0 z"
       style="fill:#f2f2f2;fill-opacity:1;fill-rule:nonzero;stroke:#ffffff;stroke-width:2.98701"
       id="path907" /><path
       d="m 1109.3507,731.16887 h 563.4195 c 0,0 0,0 0,0 v -86.62338 c 0,0 0,0 0,0 h -563.4195 c 0,0 0,0 0,0 v 86.62338 c 0,0 0,0 0,0 z"
       style="fill:#f2f2f2;fill-opacity:1;fill-rule:nonzero;stroke:#ffffff;stroke-width:2.98701"
       id="path933" /><path
       d="m 1109.3507,817.79225 h 563.4195 c 0,0 0,0 0,0 v -86.62338 c 0,0 0,0 0,0 h -563.4195 c 0,0 0,0 0,0 v 86.62338 c 0,0 0,0 0,0 z"
       style="fill:#f2f2f2;fill-opacity:1;fill-rule:nonzero;stroke:#ffffff;stroke-width:2.98701"
       id="path959" /><path
       d="m 1109.3507,644.54549 h 563.4195 c 0,0 0,0 0,0 v -86.62338 c 0,0 0,0 0,0 h -563.4195 c 0,0 0,0 0,0 v 86.62338 c 0,0 0,0 0,0 z"
       style="fill:#f2f2f2;fill-opacity:1;fill-rule:nonzero;stroke:#ffffff;stroke-width:2.98701"
       id="path985" /><path
       d="m 1121.2987,522.07796 h 511.2284 c 0,0 0,0 0,0 v -95.58442 c 0,0 0,0 0,0 h -511.2284 c 0,0 0,0 0,0 v 95.58442 c 0,0 0,0 0,0 z"
       style="fill:#ffffff;fill-opacity:1;fill-rule:nonzero;stroke:#ffffff;stroke-width:2.98701"
       id="path1013" /><path
       d="m 1121.2987,426.49354 h 511.2284 c 0,0 0,0 0,0 v -86.62338 c 0,0 0,0 0,0 h -511.2284 c 0,0 0,0 0,0 v 86.62338 c 0,0 0,0 0,0 z"
       style="fill:#f2f2f2;fill-opacity:1;fill-rule:nonzero;stroke:#ffffff;stroke-width:2.98701"
       id="path1031" /><path
       d="m 1121.2987,339.87017 h 511.2284 c 0,0 0,0 0,0 v -86.62338 c 0,0 0,0 0,0 h -511.2284 c 0,0 0,0 0,0 v 86.62338 c 0,0 0,0 0,0 z"
       style="fill:#f2f2f2;fill-opacity:1;fill-rule:nonzero;stroke:#ffffff;stroke-width:2.98701"
       id="path1057" /><path
       d="m 1121.2987,253.24679 h 511.2284 c 0,0 0,0 0,0 v -86.62338 c 0,0 0,0 0,0 h -511.2284 c 0,0 0,0 0,0 v 86.62338 c 0,0 0,0 0,0 z"
       style="fill:#f2f2f2;fill-opacity:1;fill-rule:nonzero;stroke:#ffffff;stroke-width:2.98701"
       id="path1083" /><path
       d="m 1121.2987,166.62341 h 511.2284 c 0,0 0,0 0,0 V 80.000033 c 0,0 0,0 0,0 h -511.2284 c 0,0 0,0 0,0 v 86.623377 c 0,0 0,0 0,0 z"
       style="fill:#f2f2f2;fill-opacity:1;fill-rule:nonzero;stroke:#ffffff;stroke-width:2.98701"
       id="path1109" /><path
       d="m 201.2987,976.10394 h 669.25427 c 0,0 0,0 0,0 v -95.58442 c 0,0 0,0 0,0 H 201.2987 c 0,0 0,0 0,0 v 95.58442 c 0,0 0,0 0,0 z"
       style="fill:#ffffff;fill-opacity:1;fill-rule:nonzero;stroke:#ffffff;stroke-width:2.98701"
       id="path1137" /><path
       d="m 201.2987,880.51952 h 669.25427 c 0,0 0,0 0,0 v -86.62338 c 0,0 0,0 0,0 H 201.2987 c 0,0 0,0 0,0 v 86.62338 c 0,0 0,0 0,0 z"
       style="fill:#f2f2f2;fill-opacity:1;fill-rule:nonzero;stroke:#ffffff;stroke-width:2.98701"
       id="path1155" /><path
       d="m 201.2987,793.89614 h 669.25427 c 0,0 0,0 0,0 v -86.62338 c 0,0 0,0 0,0 H 201.2987 c 0,0 0,0 0,0 v 86.62338 c 0,0 0,0 0,0 z"
       style="fill:#f2f2f2;fill-opacity:1;fill-rule:nonzero;stroke:#ffffff;stroke-width:2.98701"
       id="path1181" /><path
       d="m 201.2987,707.27277 h 669.25427 c 0,0 0,0 0,0 v -86.62338 c 0,0 0,0 0,0 H 201.2987 c 0,0 0,0 0,0 v 86.62338 c 0,0 0,0 0,0 z"
       style="fill:#f2f2f2;fill-opacity:1;fill-rule:nonzero;stroke:#ffffff;stroke-width:2.98701"
       id="path1207" /><path
       d="m 201.2987,620.64939 h 669.25427 c 0,0 0,0 0,0 v -86.62338 c 0,0 0,0 0,0 H 201.2987 c 0,0 0,0 0,0 v 86.62338 c 0,0 0,0 0,0 z"
       style="fill:#f2f2f2;fill-opacity:1;fill-rule:nonzero;stroke:#ffffff;stroke-width:2.98701"
       id="path1233" /><path
       d="m 201.2987,534.02601 h 669.25427 c 0,0 0,0 0,0 v -86.62338 c 0,0 0,0 0,0 H 201.2987 c 0,0 0,0 0,0 v 86.62338 c 0,0 0,0 0,0 z"
       style="fill:#f2f2f2;fill-opacity:1;fill-rule:nonzero;stroke:#ffffff;stroke-width:2.98701"
       id="path1259" /><path
       d="m 201.2987,447.40263 h 669.25427 c 0,0 0,0 0,0 v -86.62338 c 0,0 0,0 0,0 H 201.2987 c 0,0 0,0 0,0 v 86.62338 c 0,0 0,0 0,0 z"
       style="fill:#f2f2f2;fill-opacity:1;fill-rule:nonzero;stroke:#ffffff;stroke-width:2.98701"
       id="path1285" /><path
       d="m 201.2987,360.77926 h 669.25427 c 0,0 0,0 0,0 v -86.62338 c 0,0 0,0 0,0 H 201.2987 c 0,0 0,0 0,0 v 86.62338 c 0,0 0,0 0,0 z"
       style="fill:#f2f2f2;fill-opacity:1;fill-rule:nonzero;stroke:#ffffff;stroke-width:2.98701"
       id="path1311" /><path
       d="m 201.2987,274.15588 h 669.25427 c 0,0 0,0 0,0 V 187.5325 c 0,0 0,0 0,0 H 201.2987 c 0,0 0,0 0,0 v 86.62338 c 0,0 0,0 0,0 z"
       style="fill:#f2f2f2;fill-opacity:1;fill-rule:nonzero;stroke:#ffffff;stroke-width:2.98701"
       id="path1337" /><path
       d="m 201.2987,187.5325 h 669.25427 c 0,0 0,0 0,0 v -86.62338 c 0,0 0,0 0,0 H 201.2987 c 0,0 0,0 0,0 v 86.62338 c 0,0 0,0 0,0 z"
       style="fill:#f2f2f2;fill-opacity:1;fill-rule:nonzero;stroke:#ffffff;stroke-width:2.98701"
       id="path1363" /><text
       transform="scale(1,-1)"
       style="font-variant:normal;font-weight:bold;font-size:38.83120000000000260px;font-family:Helvetica;-inkscape-font-specification:Helvetica-Bold;writing-mode:lr-tb;fill:#800000;fill-opacity:1;fill-rule:nonzero;stroke:none;stroke-width:1.99134;"
       id="text1145"
       x="240.12987"
       y="-914.72083"><tspan
         x="240.12987 263.85571 278.96103 302.68689 313.48193 335.07208 356.6622"
         y="-914.72083"
         id="tspan1143"
         style="stroke-width:1.99134;fill:#800000;">project</tspan></text><text
       transform="scale(1,-1)"
       style="font-style:normal;font-variant:normal;font-weight:bold;font-stretch:normal;font-size:35.8442px;font-family:Helvetica;-inkscape-font-specification:'Helvetica Bold';writing-mode:lr-tb;fill:#000000;fill-opacity:1;fill-rule:nonzero;stroke:none;stroke-width:1.99134"
       id="text1163"
       x="240.12987"
       y="-824.66235"><tspan
         x="240.12987 248.08728"
         y="-824.66235"
         id="tspan1161"
         style="font-style:normal;font-variant:normal;font-weight:bold;font-stretch:normal;font-family:Helvetica;-inkscape-font-specification:'Helvetica Bold';stroke-width:1.99134">id</tspan></text><text
       transform="scale(1,-1)"
       style="font-variant:normal;font-weight:normal;font-size:35.8442px;font-family:Helvetica;-inkscape-font-specification:Helvetica;writing-mode:lr-tb;fill:#6f6f6f;fill-opacity:1;fill-rule:nonzero;stroke:none;stroke-width:1.99134"
       id="text1189"
       x="240.12987"
       y="-738.039"><tspan
         x="240.12987 260.05923 271.99533 291.92468 311.85403 323.79013 343.71948 373.57767 403.43585"
         y="-738.039"
         id="tspan1187"
         style="stroke-width:1.99134">programme</tspan></text><text
       transform="scale(1,-1)"
       style="font-variant:normal;font-weight:normal;font-size:35.8442px;font-family:Helvetica;-inkscape-font-specification:Helvetica;writing-mode:lr-tb;fill:#6f6f6f;fill-opacity:1;fill-rule:nonzero;stroke:none;stroke-width:1.99134"
       id="text1215"
       x="240.12987"
       y="-651.41565"><tspan
         x="240.12987 250.09454 270.0239 289.95325 309.8826 317.84 337.76935 357.6987 377.62805 385.58545 405.5148 423.43689 433.40155 445.33768 465.267 495.12521 515.05457 534.98389"
         y="-651.41565"
         id="tspan1213"
         style="stroke-width:1.99134">funding_instrument</tspan></text><text
       transform="scale(1,-1)"
       style="font-variant:normal;font-weight:normal;font-size:35.8442px;font-family:Helvetica;-inkscape-font-specification:Helvetica;writing-mode:lr-tb;fill:#6f6f6f;fill-opacity:1;fill-rule:nonzero;stroke:none;stroke-width:1.99134"
       id="text1241"
       x="240.12987"
       y="-564.79224"><tspan
         x="240.12987 260.05923 279.98859 309.84674 329.77609 337.73352"
         y="-564.79224"
         id="tspan1239"
         style="stroke-width:1.99134">domain</tspan></text><text
       transform="scale(1,-1)"
       style="font-variant:normal;font-weight:normal;font-size:35.8442px;font-family:Helvetica;-inkscape-font-specification:Helvetica;writing-mode:lr-tb;fill:#6f6f6f;fill-opacity:1;fill-rule:nonzero;stroke:none;stroke-width:1.99134"
       id="text1267"
       x="240.12987"
       y="-478.16888"><tspan
         x="240.12987 250.09454 270.0239 289.95325 297.91064"
         y="-478.16888"
         id="tspan1265"
         style="stroke-width:1.99134">topic</tspan></text><text
       transform="scale(1,-1)"
       style="font-variant:normal;font-weight:normal;font-size:35.8442px;font-family:Helvetica;-inkscape-font-specification:Helvetica;writing-mode:lr-tb;fill:#6f6f6f;fill-opacity:1;fill-rule:nonzero;stroke:none;stroke-width:1.99134"
       id="text1293"
       x="240.12987"
       y="-391.5455"><tspan
         x="240.12987 260.05923 268.01663 285.93869 303.86078 311.81818 331.74753 339.70493 347.66232 367.59171 387.52103 407.45041 427.37973 447.30908 477.16727"
         y="-391.5455"
         id="tspan1291"
         style="stroke-width:1.99134">discipline_name</tspan></text><text
       transform="scale(1,-1)"
       style="font-variant:normal;font-weight:normal;font-size:35.8442px;font-family:Helvetica;-inkscape-font-specification:Helvetica;writing-mode:lr-tb;fill:#6f6f6f;fill-opacity:1;fill-rule:nonzero;stroke:none;stroke-width:1.99134"
       id="text1319"
       x="240.12987"
       y="-304.92212"><tspan
         x="240.12987 258.05194 268.01663 287.94598 299.88208 309.84674 329.77609 349.70544 369.6348 379.59949"
         y="-304.92212"
         id="tspan1317"
         style="stroke-width:1.99134">start_date</tspan></text><text
       transform="scale(1,-1)"
       style="font-variant:normal;font-weight:normal;font-size:35.8442px;font-family:Helvetica;-inkscape-font-specification:Helvetica;writing-mode:lr-tb;fill:#6f6f6f;fill-opacity:1;fill-rule:nonzero;stroke:none;stroke-width:1.99134"
       id="text1345"
       x="240.12987"
       y="-218.29874"><tspan
         x="240.12987 260.05923 279.98859 299.91791 319.84729 339.77661 359.70596 369.67065"
         y="-218.29874"
         id="tspan1343"
         style="stroke-width:1.99134">end_date</tspan></text><text
       transform="scale(1,-1)"
       style="font-variant:normal;font-weight:normal;font-size:35.8442px;font-family:Helvetica;-inkscape-font-specification:Helvetica;writing-mode:lr-tb;fill:#6f6f6f;fill-opacity:1;fill-rule:nonzero;stroke:none;stroke-width:1.99134"
       id="text1371"
       x="240.12987"
       y="-131.67535"><tspan
         x="240.12987 260.05923 279.98859 299.91791 311.85403 331.78339 349.70544 369.6348 389.56415 409.4935 429.42285 459.28104 479.21039 499.13974 519.06909"
         y="-131.67535"
         id="tspan1369"
         style="stroke-width:1.99134">approved_amount</tspan></text><text
       transform="scale(1,-1)"
       style="font-variant:normal;font-weight:bold;font-size:38.83120000000000260px;font-family:Helvetica;-inkscape-font-specification:Helvetica-Bold;writing-mode:lr-tb;fill:#800000;fill-opacity:1;fill-rule:nonzero;stroke:none;stroke-width:1.99134;"
       id="text897"
       x="1148.1818"
       y="-938.61694"><tspan
         x="1148.1818 1171.9076"
         y="-938.61694"
         id="tspan895"
         style="stroke-width:1.99134;fill:#800000;">hr</tspan></text><text
       transform="scale(1,-1)"
       style="font-style:normal;font-variant:normal;font-weight:bold;font-stretch:normal;font-size:35.8442px;font-family:Helvetica;-inkscape-font-specification:'Helvetica Bold';writing-mode:lr-tb;fill:#000000;fill-opacity:1;fill-rule:nonzero;stroke:none;stroke-width:1.99134"
       id="text915"
       x="1148.1818"
       y="-848.55847"><tspan
         x="1148.1818 1156.1392"
         y="-848.55847"
         id="tspan913"
         style="font-style:normal;font-variant:normal;font-weight:bold;font-stretch:normal;font-family:Helvetica;-inkscape-font-specification:'Helvetica Bold';stroke-width:1.99134">id</tspan></text><text
       transform="scale(1,-1)"
       style="font-variant:normal;font-weight:normal;font-size:35.8442px;font-family:Helvetica;-inkscape-font-specification:Helvetica;writing-mode:lr-tb;fill:#6f6f6f;fill-opacity:1;fill-rule:nonzero;stroke:none;stroke-width:1.99134"
       id="text941"
       x="1148.1818"
       y="-675.31171"><tspan
         x="1148.1818 1168.1112 1188.0405 1199.9766 1217.8987 1237.828 1257.7574 1277.6868 1285.6442"
         y="-675.31171"
         id="tspan939"
         style="stroke-width:1.99134">person_id</tspan></text><text
       transform="scale(1,-1)"
       style="font-variant:normal;font-weight:normal;font-size:35.8442px;font-family:Helvetica;-inkscape-font-specification:Helvetica;writing-mode:lr-tb;fill:#6f6f6f;fill-opacity:1;fill-rule:nonzero;stroke:none;stroke-width:1.99134"
       id="text967"
       x="1148.1818"
       y="-761.93512"><tspan
         x="1148.1818 1168.1112 1180.0472 1199.9766 1207.934 1227.8634 1245.7854 1255.7501 1275.6794 1283.6368"
         y="-761.93512"
         id="tspan965"
         style="stroke-width:1.99134">project_id</tspan></text><text
       transform="scale(1,-1)"
       style="font-variant:normal;font-weight:normal;font-size:35.8442px;font-family:Helvetica;-inkscape-font-specification:Helvetica;writing-mode:lr-tb;fill:#6f6f6f;fill-opacity:1;fill-rule:nonzero;stroke:none;stroke-width:1.99134"
       id="text993"
       x="1148.1818"
       y="-588.68835"><tspan
         x="1148.1818 1160.1179 1180.0472 1188.0046"
         y="-588.68835"
         id="tspan991"
         style="stroke-width:1.99134">role</tspan></text><text
       transform="scale(1,-1)"
       style="font-variant:normal;font-weight:bold;font-size:38.83120000000000260px;font-family:Helvetica;-inkscape-font-specification:Helvetica-Bold;writing-mode:lr-tb;fill:#800000;fill-opacity:1;fill-rule:nonzero;stroke:none;stroke-width:1.99134;"
       id="text1021"
       x="1160.1299"
       y="-460.69485"><tspan
         x="1160.1299 1183.8557 1205.4459 1220.5511 1242.1414 1265.8672"
         y="-460.69485"
         id="tspan1019"
         style="stroke-width:1.99134;fill:#800000;">person</tspan></text><text
       transform="scale(1,-1)"
       style="font-style:normal;font-variant:normal;font-weight:bold;font-stretch:normal;font-size:35.8442px;font-family:Helvetica;-inkscape-font-specification:'Helvetica Bold';writing-mode:lr-tb;fill:#000000;fill-opacity:1;fill-rule:nonzero;stroke:none;stroke-width:1.99134"
       id="text1039"
       x="1160.1299"
       y="-370.63641"><tspan
         x="1160.1299 1168.0873"
         y="-370.63641"
         id="tspan1037"
         style="font-style:normal;font-variant:normal;font-weight:bold;font-stretch:normal;font-family:Helvetica;-inkscape-font-specification:'Helvetica Bold';stroke-width:1.99134">id</tspan></text><text
       transform="scale(1,-1)"
       style="font-variant:normal;font-weight:normal;font-size:35.8442px;font-family:Helvetica;-inkscape-font-specification:Helvetica;writing-mode:lr-tb;fill:#6f6f6f;fill-opacity:1;fill-rule:nonzero;stroke:none;stroke-width:1.99134"
       id="text1065"
       x="1160.1299"
       y="-284.01303"><tspan
         x="1160.1299 1180.0592 1199.9886 1219.918 1239.8473 1259.7766"
         y="-284.01303"
         id="tspan1063"
         style="stroke-width:1.99134">gender</tspan></text><text
       transform="scale(1,-1)"
       style="font-variant:normal;font-weight:normal;font-size:35.8442px;font-family:Helvetica;-inkscape-font-specification:Helvetica;writing-mode:lr-tb;fill:#6f6f6f;fill-opacity:1;fill-rule:nonzero;stroke:none;stroke-width:1.99134"
       id="text1091"
       x="1160.1299"
       y="-197.38965"><tspan
         x="1160.1299 1170.0946 1178.052 1189.988 1207.9102 1217.8749 1237.8042 1257.7335 1277.6628 1307.5211"
         y="-197.38965"
         id="tspan1089"
         style="stroke-width:1.99134">first_name</tspan></text><text
       transform="scale(1,-1)"
       style="font-variant:normal;font-weight:normal;font-size:35.8442px;font-family:Helvetica;-inkscape-font-specification:Helvetica;writing-mode:lr-tb;fill:#6f6f6f;fill-opacity:1;fill-rule:nonzero;stroke:none;stroke-width:1.99134"
       id="text1117"
       x="1160.1299"
       y="-110.76627"><tspan
         x="1160.1299 1168.0873 1188.0166 1205.9387 1215.9034 1235.8328 1255.7621 1275.6914 1305.5497"
         y="-110.76627"
         id="tspan1115"
         style="stroke-width:1.99134">last_name</tspan></text><text
       transform="scale(1,-1)"
       style="font-style:normal;font-variant:normal;font-weight:bold;font-stretch:normal;font-size:35.8442px;font-family:Helvetica;-inkscape-font-specification:'Helvetica Bold';writing-mode:lr-tb;fill:#999999;fill-opacity:1;fill-rule:nonzero;stroke:none;stroke-width:1.99134"
       id="text1171"
       x="675.38782"
       y="-824.66235"><tspan
         x="675.38782 685.35254 711.23199 733.13275 757.04083 784.92755 808.83563"
         y="-824.66235"
         id="tspan1169"
         style="font-style:normal;font-variant:normal;font-weight:bold;font-stretch:normal;font-family:Helvetica;-inkscape-font-specification:'Helvetica Bold';stroke-width:1.99134">INTEGER</tspan></text><text
       transform="scale(1,-1)"
       style="font-variant:normal;font-weight:normal;font-size:35.8442px;font-family:Helvetica;-inkscape-font-specification:Helvetica;writing-mode:lr-tb;fill:#999999;fill-opacity:1;fill-rule:nonzero;stroke:none;stroke-width:1.99134"
       id="text1197"
       x="743.10321"
       y="-738.039"><tspan
         x="743.10321 765.00397 788.91205 812.82007"
         y="-738.039"
         id="tspan1195"
         style="stroke-width:1.99134">TEXT</tspan></text><text
       transform="scale(1,-1)"
       style="font-variant:normal;font-weight:normal;font-size:35.8442px;font-family:Helvetica;-inkscape-font-specification:Helvetica;writing-mode:lr-tb;fill:#999999;fill-opacity:1;fill-rule:nonzero;stroke:none;stroke-width:1.99134"
       id="text1223"
       x="743.10321"
       y="-651.41565"><tspan
         x="743.10321 765.00397 788.91205 812.82007"
         y="-651.41565"
         id="tspan1221"
         style="stroke-width:1.99134">TEXT</tspan></text><text
       transform="scale(1,-1)"
       style="font-variant:normal;font-weight:normal;font-size:35.8442px;font-family:Helvetica;-inkscape-font-specification:Helvetica;writing-mode:lr-tb;fill:#999999;fill-opacity:1;fill-rule:nonzero;stroke:none;stroke-width:1.99134"
       id="text1249"
       x="743.10321"
       y="-564.79224"><tspan
         x="743.10321 765.00397 788.91205 812.82007"
         y="-564.79224"
         id="tspan1247"
         style="stroke-width:1.99134">TEXT</tspan></text><text
       transform="scale(1,-1)"
       style="font-variant:normal;font-weight:normal;font-size:35.8442px;font-family:Helvetica;-inkscape-font-specification:Helvetica;writing-mode:lr-tb;fill:#999999;fill-opacity:1;fill-rule:nonzero;stroke:none;stroke-width:1.99134"
       id="text1275"
       x="743.10321"
       y="-478.16888"><tspan
         x="743.10321 765.00397 788.91205 812.82007"
         y="-478.16888"
         id="tspan1273"
         style="stroke-width:1.99134">TEXT</tspan></text><text
       transform="scale(1,-1)"
       style="font-variant:normal;font-weight:normal;font-size:35.8442px;font-family:Helvetica;-inkscape-font-specification:Helvetica;writing-mode:lr-tb;fill:#999999;fill-opacity:1;fill-rule:nonzero;stroke:none;stroke-width:1.99134"
       id="text1301"
       x="743.10321"
       y="-391.5455"><tspan
         x="743.10321 765.00397 788.91205 812.82007"
         y="-391.5455"
         id="tspan1299"
         style="stroke-width:1.99134">TEXT</tspan></text><text
       transform="scale(1,-1)"
       style="font-variant:normal;font-weight:normal;font-size:35.8442px;font-family:Helvetica;-inkscape-font-specification:Helvetica;writing-mode:lr-tb;fill:#999999;fill-opacity:1;fill-rule:nonzero;stroke:none;stroke-width:1.99134"
       id="text1327"
       x="656.13562"
       y="-304.92212"><tspan
         x="656.13562 682.01508 705.92316 727.82391 751.73199 773.63275 783.59741 813.45563"
         y="-304.92212"
         id="tspan1325"
         style="stroke-width:1.99134">DATETIME</tspan></text><text
       transform="scale(1,-1)"
       style="font-variant:normal;font-weight:normal;font-size:35.8442px;font-family:Helvetica;-inkscape-font-specification:Helvetica;writing-mode:lr-tb;fill:#999999;fill-opacity:1;fill-rule:nonzero;stroke:none;stroke-width:1.99134"
       id="text1353"
       x="656.13562"
       y="-218.29874"><tspan
         x="656.13562 682.01508 705.92316 727.82391 751.73199 773.63275 783.59741 813.45563"
         y="-218.29874"
         id="tspan1351"
         style="stroke-width:1.99134">DATETIME</tspan></text><text
       transform="scale(1,-1)"
       style="font-variant:normal;font-weight:normal;font-size:35.8442px;font-family:Helvetica;-inkscape-font-specification:Helvetica;writing-mode:lr-tb;fill:#999999;fill-opacity:1;fill-rule:nonzero;stroke:none;stroke-width:1.99134"
       id="text1379"
       x="721.83826"
       y="-131.67535"><tspan
         x="721.83826 743.73901 763.66833 791.55511 815.46313"
         y="-131.67535"
         id="tspan1377"
         style="stroke-width:1.99134">FLOAT</tspan></text><text
       transform="scale(1,-1)"
       style="font-style:normal;font-variant:normal;font-weight:bold;font-stretch:normal;font-size:35.8442px;font-family:Helvetica;-inkscape-font-specification:'Helvetica Bold';writing-mode:lr-tb;fill:#999999;fill-opacity:1;fill-rule:nonzero;stroke:none;stroke-width:1.99134"
       id="text923"
       x="1477.605"
       y="-848.55847"><tspan
         x="1477.605 1487.5697 1513.4491 1535.35 1559.2579 1587.1448 1611.0527"
         y="-848.55847"
         id="tspan921"
         style="font-style:normal;font-variant:normal;font-weight:bold;font-stretch:normal;font-family:Helvetica;-inkscape-font-specification:'Helvetica Bold';stroke-width:1.99134">INTEGER</tspan></text><text
       transform="scale(1,-1)"
       style="font-variant:normal;font-weight:normal;font-size:35.8442px;font-family:Helvetica;-inkscape-font-specification:Helvetica;writing-mode:lr-tb;fill:#999999;fill-opacity:1;fill-rule:nonzero;stroke:none;stroke-width:1.99134"
       id="text949"
       x="1477.605"
       y="-675.31171"><tspan
         x="1477.605 1487.5697 1513.4491 1535.35 1559.2579 1587.1448 1611.0527"
         y="-675.31171"
         id="tspan947"
         style="stroke-width:1.99134">INTEGER</tspan></text><text
       transform="scale(1,-1)"
       style="font-variant:normal;font-weight:normal;font-size:35.8442px;font-family:Helvetica;-inkscape-font-specification:Helvetica;writing-mode:lr-tb;fill:#999999;fill-opacity:1;fill-rule:nonzero;stroke:none;stroke-width:1.99134"
       id="text975"
       x="1477.605"
       y="-761.93512"><tspan
         x="1477.605 1487.5697 1513.4491 1535.35 1559.2579 1587.1448 1611.0527"
         y="-761.93512"
         id="tspan973"
         style="stroke-width:1.99134">INTEGER</tspan></text><text
       transform="scale(1,-1)"
       style="font-variant:normal;font-weight:normal;font-size:35.8442px;font-family:Helvetica;-inkscape-font-specification:Helvetica;writing-mode:lr-tb;fill:#999999;fill-opacity:1;fill-rule:nonzero;stroke:none;stroke-width:1.99134"
       id="text1001"
       x="1545.3204"
       y="-588.68835"><tspan
         x="1545.3204 1567.2212 1591.1293 1615.0372"
         y="-588.68835"
         id="tspan999"
         style="stroke-width:1.99134">TEXT</tspan></text><text
       transform="scale(1,-1)"
       style="font-style:normal;font-variant:normal;font-weight:bold;font-stretch:normal;font-size:35.8442px;font-family:Helvetica;-inkscape-font-specification:'Helvetica Bold';writing-mode:lr-tb;fill:#999999;fill-opacity:1;fill-rule:nonzero;stroke:none;stroke-width:1.99134"
       id="text1047"
       x="1437.3621"
       y="-370.63641"><tspan
         x="1437.3621 1447.3267 1473.2062 1495.1069 1519.015 1546.9017 1570.8098"
         y="-370.63641"
         id="tspan1045"
         style="font-style:normal;font-variant:normal;font-weight:bold;font-stretch:normal;font-family:Helvetica;-inkscape-font-specification:'Helvetica Bold';stroke-width:1.99134">INTEGER</tspan></text><text
       transform="scale(1,-1)"
       style="font-variant:normal;font-weight:normal;font-size:35.8442px;font-family:Helvetica;-inkscape-font-specification:Helvetica;writing-mode:lr-tb;fill:#999999;fill-opacity:1;fill-rule:nonzero;stroke:none;stroke-width:1.99134"
       id="text1073"
       x="1505.0774"
       y="-284.01303"><tspan
         x="1505.0774 1526.9781 1550.8862 1574.7943"
         y="-284.01303"
         id="tspan1071"
         style="stroke-width:1.99134">TEXT</tspan></text><text
       transform="scale(1,-1)"
       style="font-variant:normal;font-weight:normal;font-size:35.8442px;font-family:Helvetica;-inkscape-font-specification:Helvetica;writing-mode:lr-tb;fill:#999999;fill-opacity:1;fill-rule:nonzero;stroke:none;stroke-width:1.99134"
       id="text1099"
       x="1505.0774"
       y="-197.38965"><tspan
         x="1505.0774 1526.9781 1550.8862 1574.7943"
         y="-197.38965"
         id="tspan1097"
         style="stroke-width:1.99134">TEXT</tspan></text><text
       transform="scale(1,-1)"
       style="font-variant:normal;font-weight:normal;font-size:35.8442px;font-family:Helvetica;-inkscape-font-specification:Helvetica;writing-mode:lr-tb;fill:#999999;fill-opacity:1;fill-rule:nonzero;stroke:none;stroke-width:1.99134"
       id="text1125"
       x="1505.0774"
       y="-110.76627"><tspan
         x="1505.0774 1526.9781 1550.8862 1574.7943"
         y="-110.76627"
         id="tspan1123"
         style="stroke-width:1.99134">TEXT</tspan></text><path
       d="m 1632.5271,383.18186 h 62.2781 c 13.1975,0 23.8961,10.69864 23.8961,23.8961 V 664.8916 c 0,12.68355 -10.282,22.96559 -22.9656,22.96559 h -22.9655"
       style="fill:none;fill-opacity:1;stroke:#d4d4d4;stroke-width:7.5;stroke-linecap:butt;stroke-linejoin:miter;stroke-miterlimit:4;stroke-dasharray:none;stroke-opacity:1"
       id="path865" /></g></svg>
